<svg xmlns="http://www.w3.org/2000/svg" viewBox="0 0 743.75 51.91"><defs><style>.cls-1{fill:#fa4609;}</style></defs><title>Fichier 2</title><g id="Calque_2" data-name="Calque 2"><g id="Calque_1-2" data-name="Calque 1"><path class="cls-1" d="M71.71,51.84A21.13,21.13,0,0,1,62,49.61a25.1,25.1,0,0,1-7.56-5.83,26.06,26.06,0,0,1-4.89-8.28,27.3,27.3,0,0,1-1.73-9.58,26.63,26.63,0,0,1,1.83-9.79,27.61,27.61,0,0,1,5-8.28,24.24,24.24,0,0,1,7.6-5.73A21.63,21.63,0,0,1,71.78,0a21.1,21.1,0,0,1,9.76,2.27A24.49,24.49,0,0,1,89.1,8.21,27.44,27.44,0,0,1,94,16.52,27.1,27.1,0,0,1,88.81,44a24.54,24.54,0,0,1-7.59,5.69A21.65,21.65,0,0,1,71.71,51.84ZM51.48,25.92A24.46,24.46,0,0,0,53,34.38a22.81,22.81,0,0,0,4.17,7.2,20.38,20.38,0,0,0,6.45,5,18,18,0,0,0,8.2,1.88,17.58,17.58,0,0,0,8.32-2,20.29,20.29,0,0,0,6.34-5.15,24,24,0,0,0,4.06-7.23,24.28,24.28,0,0,0,1.44-8.21,24,24,0,0,0-1.51-8.46,23.49,23.49,0,0,0-4.21-7.2,20.63,20.63,0,0,0-6.37-5,17.5,17.5,0,0,0-8.07-1.88,17.81,17.81,0,0,0-8.35,2A20.56,20.56,0,0,0,57,10.48a23.66,23.66,0,0,0-4.1,7.23A24.28,24.28,0,0,0,51.48,25.92Z"/><path class="cls-1" d="M152.28,51.48V.36H156V51.48Z"/><path class="cls-1" d="M221.61,7.27V51.48h-3.67V.36h2.81l35.86,45V.36h3.67V51.48h-3.39Z"/><path class="cls-1" d="M377.35,8.86q-5-5.55-14-5.55-7.5,0-10.91,2.85A9.44,9.44,0,0,0,349,13.82a8.64,8.64,0,0,0,.86,4.07,7.43,7.43,0,0,0,2.7,2.77,17.92,17.92,0,0,0,4.65,1.95q2.81.8,6.76,1.65c2.74.58,5.22,1.22,7.46,1.91a21.52,21.52,0,0,1,5.68,2.63,11.12,11.12,0,0,1,3.6,3.89A11.71,11.71,0,0,1,382,38.38a12.43,12.43,0,0,1-1.33,5.9,11.87,11.87,0,0,1-3.74,4.21,17.67,17.67,0,0,1-5.76,2.56,30.13,30.13,0,0,1-7.45.86,28.76,28.76,0,0,1-20.24-7.63l1.95-3a23.54,23.54,0,0,0,7.92,5.36,26.72,26.72,0,0,0,10.51,2q6.69,0,10.48-2.45a8.22,8.22,0,0,0,3.78-7.41,8.56,8.56,0,0,0-1-4.29,9.25,9.25,0,0,0-3-3.06,20.33,20.33,0,0,0-5-2.23q-3-.93-7.06-1.8c-2.74-.57-5.15-1.19-7.24-1.83a19.25,19.25,0,0,1-5.25-2.45,9.81,9.81,0,0,1-3.21-3.57,11.35,11.35,0,0,1-1.08-5.25,13.45,13.45,0,0,1,1.34-6.12,12.79,12.79,0,0,1,3.7-4.5A16.42,16.42,0,0,1,356,.94,26.77,26.77,0,0,1,363.31,0a24.66,24.66,0,0,1,8.85,1.48A20.89,20.89,0,0,1,379.22,6Z"/><path class="cls-1" d="M433.51,25.56a27.34,27.34,0,0,1,1.62-9.18,25.48,25.48,0,0,1,4.71-8.17,24.38,24.38,0,0,1,7.6-5.87A22.51,22.51,0,0,1,457.7.07,21,21,0,0,1,469.36,3.2a19.74,19.74,0,0,1,7.2,8l-3,1.73a16.9,16.9,0,0,0-3.21-4.46,16.59,16.59,0,0,0-4-2.92A17.8,17.8,0,0,0,462,4a21,21,0,0,0-4.54-.5,18.23,18.23,0,0,0-8.64,2,20.42,20.42,0,0,0-6.34,5.14,22.62,22.62,0,0,0-3.92,7.17,25.17,25.17,0,0,0-1.33,8,23.94,23.94,0,0,0,1.58,8.64,24.29,24.29,0,0,0,4.32,7.23,21.14,21.14,0,0,0,6.48,5,17.92,17.92,0,0,0,8.07,1.87,20.41,20.41,0,0,0,4.75-.58,18.27,18.27,0,0,0,4.68-1.8A18.89,18.89,0,0,0,471.23,43a16.49,16.49,0,0,0,3.24-4.5L477.64,40a16.88,16.88,0,0,1-3.53,5.11,22,22,0,0,1-5,3.75,24,24,0,0,1-5.8,2.27,25.17,25.17,0,0,1-6,.75,20.27,20.27,0,0,1-9.61-2.3,25.47,25.47,0,0,1-7.53-6,28.07,28.07,0,0,1-4.93-8.43A27.13,27.13,0,0,1,433.51,25.56Z"/><path class="cls-1" d="M506.59,51.84a21.07,21.07,0,0,1-9.72-2.23,25.1,25.1,0,0,1-7.56-5.83,25.9,25.9,0,0,1-4.9-8.28,27.53,27.53,0,0,1-1.73-9.58,26.44,26.44,0,0,1,1.84-9.79,27.21,27.21,0,0,1,5-8.28,24.2,24.2,0,0,1,7.59-5.73A21.65,21.65,0,0,1,506.66,0a21.09,21.09,0,0,1,9.75,2.27A24.26,24.26,0,0,1,524,8.21a27.44,27.44,0,0,1,4.86,8.31,26.94,26.94,0,0,1-.1,19.26,27.21,27.21,0,0,1-5,8.25,24.58,24.58,0,0,1-7.6,5.69A21.63,21.63,0,0,1,506.59,51.84ZM486.35,25.92a24.7,24.7,0,0,0,1.48,8.46,22.83,22.83,0,0,0,4.18,7.2,20.34,20.34,0,0,0,6.44,5,18.05,18.05,0,0,0,8.21,1.88,17.57,17.57,0,0,0,8.31-2,20.07,20.07,0,0,0,6.34-5.15,24,24,0,0,0,4.07-7.23,24.29,24.29,0,0,0-.07-16.67,23.51,23.51,0,0,0-4.22-7.2,20.63,20.63,0,0,0-6.37-5,17.49,17.49,0,0,0-8.06-1.88,17.79,17.79,0,0,0-8.35,2,20.33,20.33,0,0,0-6.41,5.15,23.48,23.48,0,0,0-4.11,7.23A24.28,24.28,0,0,0,486.35,25.92Z"/><path class="cls-1" d="M743.75,3.67H725V51.48h-3.67V3.67H702.64V.36h41.11Z"/><path class="cls-1" d="M39.74,16a22.8,22.8,0,0,0-4.53-8.1,21.29,21.29,0,0,0-7.6-5.47A26,26,0,0,0,17,.36H0V51.48H3.67V3.67H17a21.84,21.84,0,0,1,8.79,1.66,18.13,18.13,0,0,1,6.44,4.61,20,20,0,0,1,4,7,27.76,27.76,0,0,1,1.36,8.89,28.11,28.11,0,0,1-1.33,8.82,20.66,20.66,0,0,1-3.92,7.09,17.76,17.76,0,0,1-6.45,4.72A22,22,0,0,1,17,48.17H7.09v3.31H17A26.27,26.27,0,0,0,27,49.64a21.59,21.59,0,0,0,7.66-5.18,22.5,22.5,0,0,0,4.86-8.06,31,31,0,0,0,1.7-10.55A31.67,31.67,0,0,0,39.74,16Z"/><path class="cls-1" d="M129.67,31.61a13.45,13.45,0,0,0,4.9-1.8,13.82,13.82,0,0,0,3.81-3.46,15.75,15.75,0,0,0,2.45-4.71,17.26,17.26,0,0,0,.87-5.44,15.6,15.6,0,0,0-1.12-5.72,17.58,17.58,0,0,0-3.1-5.12,15.25,15.25,0,0,0-4.71-3.63,13.24,13.24,0,0,0-6-1.37H112.54V3.67h14.11a9.61,9.61,0,0,1,4.43,1,12.39,12.39,0,0,1,3.6,2.77,13.25,13.25,0,0,1,2.44,4,12.73,12.73,0,0,1,.9,4.72,14.68,14.68,0,0,1-.75,4.64,12.75,12.75,0,0,1-2.2,4,11.41,11.41,0,0,1-3.45,2.84,9.35,9.35,0,0,1-4.47,1.08H112.54v3.38h13.24l12.39,19.3h4.25Z"/><polygon class="cls-1" points="109.22 28.8 109.22 3.67 109.22 0.36 105.55 0.36 105.55 51.48 109.22 51.48 109.22 34.13 109.22 32.18 109.22 28.8"/><polygon class="cls-1" points="193.93 31.61 175.61 31.61 186.98 4.82 197.52 30.12 206.55 51.48 210.17 51.48 188.57 0.36 185.4 0.36 163.65 51.48 167.61 51.48 174.74 34.63 195.21 34.63 193.93 31.61"/><polygon class="cls-1" points="414.9 31.61 396.57 31.61 407.95 4.82 418.29 29.66 427.51 51.48 431.13 51.48 409.53 0.36 406.36 0.36 384.62 51.48 388.58 51.48 395.71 34.63 416.17 34.63 414.9 31.61"/><polygon class="cls-1" points="559.6 26.96 544.1 0.36 540.42 0.36 540.42 51.48 544.1 51.48 544.1 7.27 564.26 41.76 566.56 41.76 567.36 40.4 559.6 26.96"/><polygon class="cls-1" points="586.72 0.36 567.64 33.11 569.62 36.54 586.72 7.27 586.72 51.48 590.39 51.48 590.39 0.36 586.72 0.36"/><polygon class="cls-1" points="628.41 31.61 610.05 31.61 621.42 4.82 630 25.41 641.07 51.48 644.61 51.48 623.01 0.36 619.84 0.36 598.1 51.48 602.06 51.48 609.18 34.63 629.69 34.63 628.41 31.61"/><polygon class="cls-1" points="694.72 44.26 694.72 0.36 691.05 0.36 691.05 39.52 694.72 44.26"/><polygon class="cls-1" points="676.1 26.6 655.19 0.36 652.38 0.36 652.38 2.5 663.87 17.06 691.34 51.48 694.72 51.48 694.72 50.6 676.1 26.6"/><polygon class="cls-1" points="652.38 8.78 652.38 51.48 656.06 51.48 656.06 13.43 652.38 8.78"/></g></g></svg>